<svg xmlns="http://www.w3.org/2000/svg" viewBox="0 0 64 64">
  <defs>
    <radialGradient id="glass" cx="38%" cy="32%" r="75%">
      <stop offset="0" stop-color="#ffffff" stop-opacity="0.95"/>
      <stop offset="0.55" stop-color="#e9eefc" stop-opacity="0.75"/>
      <stop offset="1" stop-color="#c7cff0" stop-opacity="0.9"/>
    </radialGradient>
    <radialGradient id="mochi" cx="40%" cy="35%" r="70%">
      <stop offset="0" stop-color="#ffd2c9"/>
      <stop offset="1" stop-color="#f29a8c"/>
    </radialGradient>
  </defs>
  <circle cx="32" cy="6.5" r="3.4" fill="none" stroke="#c9ccd6" stroke-width="2"/>
  <path d="M32 10c12.5 0 21 13 21 27.5C53 50 44 59 32 59S11 50 11 37.5C11 23 19.5 10 32 10z" fill="url(#glass)" stroke="#b9aef0" stroke-width="2"/>
  <ellipse cx="32" cy="42" rx="13" ry="9" fill="url(#mochi)"/>
  <ellipse cx="27" cy="41" rx="1.6" ry="2.3" fill="#1d1a22"/>
  <ellipse cx="37" cy="41" rx="1.6" ry="2.3" fill="#1d1a22"/>
  <ellipse cx="24" cy="45" rx="2.6" ry="1.6" fill="#ff7f74" opacity="0.55"/>
  <ellipse cx="40" cy="45" rx="2.6" ry="1.6" fill="#ff7f74" opacity="0.55"/>
  <path d="M32 33c0-3 1-5 3-6" stroke="#6fbf5c" stroke-width="1.8" fill="none" stroke-linecap="round"/>
  <ellipse cx="36.5" cy="27" rx="3" ry="1.5" fill="#86c76c" transform="rotate(-25 36.5 27)"/>
  <path d="M21 22c3-5 7-7 11-7" stroke="#ffffff" stroke-width="2.4" fill="none" stroke-linecap="round" opacity="0.9"/>
</svg>
